<?xml version="1.0" encoding="UTF-8" standalone="no"?>
<!-- Created with Inkscape (http://www.inkscape.org/) -->

<svg
   width="1920"
   height="1080"
   viewBox="0 0 1920 1080"
   version="1.1"
   id="svg5"
   inkscape:version="1.1 (c68e22c387, 2021-05-23)"
   sodipodi:docname="1516-notext.svg"
   xmlns:inkscape="http://www.inkscape.org/namespaces/inkscape"
   xmlns:sodipodi="http://sodipodi.sourceforge.net/DTD/sodipodi-0.dtd"
   xmlns="http://www.w3.org/2000/svg"
   xmlns:svg="http://www.w3.org/2000/svg">
  <sodipodi:namedview
     id="namedview7"
     pagecolor="#505050"
     bordercolor="#ffffff"
     borderopacity="1"
     inkscape:pageshadow="0"
     inkscape:pageopacity="0"
     inkscape:pagecheckerboard="1"
     inkscape:document-units="px"
     showgrid="false"
     inkscape:snap-bbox="true"
     inkscape:snap-page="true"
     inkscape:zoom="0.5671875"
     inkscape:cx="960"
     inkscape:cy="540.38567"
     inkscape:window-width="1920"
     inkscape:window-height="1017"
     inkscape:window-x="-8"
     inkscape:window-y="-8"
     inkscape:window-maximized="1"
     inkscape:current-layer="layer1" />
  <defs
     id="defs2" />
  <g
     inkscape:label="Layer 1"
     inkscape:groupmode="layer"
     id="layer1">
    <rect
       style="opacity:0.995;stroke:#000000;stroke-width:2;paint-order:stroke fill markers"
       id="rect948"
       width="1920"
       height="1080"
       x="0"
       y="0" />
    <g
       aria-label="ESOTERIC BEAT"
       id="text7874"
       style="font-size:96px;line-height:1.25;font-family:'Times New Roman';-inkscape-font-specification:'Times New Roman, ';text-align:center;text-anchor:middle;fill:#ffffff;stroke-width:0.264583">
      <path
         d="m 618.72656,119.90625 v 25.125 h 13.96875 q 5.4375,0 7.26563,-1.64063 2.4375,-2.15625 2.71875,-7.59375 h 1.73437 v 22.125 h -1.73437 q -0.65625,-4.64062 -1.3125,-5.95312 -0.84375,-1.64063 -2.76563,-2.57813 -1.92187,-0.9375 -5.90625,-0.9375 h -13.96875 v 20.95313 q 0,4.21875 0.375,5.15625 0.375,0.89062 1.3125,1.45312 0.9375,0.51563 3.5625,0.51563 h 10.78125 q 5.39063,0 7.82813,-0.75 2.4375,-0.75 4.6875,-2.95313 2.90625,-2.90625 5.95312,-8.76562 h 1.875 L 649.61719,180 h -48.98438 v -1.73438 h 2.25 q 2.25,0 4.26563,-1.07812 1.5,-0.75 2.01562,-2.25 0.5625,-1.5 0.5625,-6.14063 V 127.5 q 0,-6.04687 -1.21875,-7.45312 -1.6875,-1.875 -5.625,-1.875 h -2.25 v -1.73438 h 48.98438 l 0.70312,13.92187 h -1.82812 q -0.98438,-5.01562 -2.20313,-6.89062 -1.17187,-1.875 -3.51562,-2.85937 -1.875,-0.70313 -6.60938,-0.70313 z"
         id="path3616" />
      <path
         d="m 701.32031,114.98438 v 21.98437 h -1.73437 q -0.84375,-6.32813 -3.04688,-10.07812 -2.15625,-3.75 -6.1875,-5.95313 -4.03125,-2.20312 -8.34375,-2.20312 -4.875,0 -8.0625,3 -3.1875,2.95312 -3.1875,6.74999 0,2.90625 2.01563,5.29688 2.90625,3.51562 13.82812,9.375 8.90625,4.78125 12.14063,7.35937 3.28125,2.53125 5.01562,6 1.78125,3.46875 1.78125,7.26563 0,7.21875 -5.625,12.46875 -5.57812,5.20312 -14.39062,5.20312 -2.76563,0 -5.20313,-0.42187 -1.45312,-0.23438 -6.04687,-1.6875 -4.54688,-1.5 -5.76563,-1.5 -1.17187,0 -1.875,0.70312 -0.65625,0.70313 -0.98437,2.90625 h -1.73438 v -21.79687 h 1.73438 q 1.21875,6.84375 3.28125,10.26562 2.0625,3.375 6.28125,5.625 4.26562,2.25 9.32812,2.25 5.85938,0 9.23438,-3.09375 3.42187,-3.09375 3.42187,-7.3125 0,-2.34375 -1.3125,-4.73437 -1.26562,-2.39063 -3.98437,-4.45313 -1.82813,-1.40625 -9.98438,-5.95312 -8.15625,-4.59375 -11.625,-7.3125 -3.42187,-2.71875 -5.20312,-6 -1.78125,-3.28125 -1.78125,-7.21875 0,-6.84375 5.25,-11.76562 5.25,-4.96875 13.35937,-4.96875 5.0625,0 10.73438,2.48437 2.625,1.17188 3.70312,1.17188 1.21875,0 1.96875,-0.70313 0.79688,-0.75 1.26563,-2.95312 z"
         id="path3618" />
      <path
         d="m 745.80469,114.98438 q 12.375,0 21.42187,9.42187 9.09375,9.375 9.09375,23.4375 0,14.48437 -9.14062,24.04687 -9.14063,9.5625 -22.125,9.5625 -13.125,0 -22.07813,-9.32812 -8.90625,-9.32813 -8.90625,-24.14063 0,-15.14062 10.3125,-24.70312 8.95313,-8.29687 21.42188,-8.29687 z m -0.89063,3.42187 q -8.53125,0 -13.6875,6.32813 -6.42187,7.87499 -6.42187,23.06249 0,15.5625 6.65625,23.95313 5.10937,6.375 13.5,6.375 8.95312,0 14.76562,-6.98438 5.85938,-6.98437 5.85938,-22.03125 0,-16.3125 -6.42188,-24.32812 -5.15625,-6.375 -14.25,-6.375 z"
         id="path3620" />
      <path
         d="m 835.57031,116.4375 0.70313,14.90625 h -1.78125 q -0.51563,-3.9375 -1.40625,-5.625 -1.45313,-2.71875 -3.89063,-3.98437 -2.39062,-1.3125 -6.32812,-1.3125 h -8.95313 v 48.56249 q 0,5.85938 1.26563,7.3125 1.78125,1.96875 5.48437,1.96875 h 2.20313 V 180 h -26.95313 v -1.73438 h 2.25 q 4.03125,0 5.71875,-2.4375 1.03125,-1.5 1.03125,-6.84375 v -48.56249 h -7.64062 q -4.45313,0 -6.32813,0.65625 -2.4375,0.89062 -4.17187,3.42187 -1.73438,2.53125 -2.0625,6.84375 h -1.78125 l 0.75,-14.90625 z"
         id="path3622" />
      <path
         d="m 858.72656,119.90625 v 25.125 h 13.96875 q 5.4375,0 7.26563,-1.64063 2.4375,-2.15625 2.71875,-7.59375 h 1.73437 v 22.125 h -1.73437 q -0.65625,-4.64062 -1.3125,-5.95312 -0.84375,-1.64063 -2.76563,-2.57813 -1.92187,-0.9375 -5.90625,-0.9375 h -13.96875 v 20.95313 q 0,4.21875 0.375,5.15625 0.375,0.89062 1.3125,1.45312 0.9375,0.51563 3.5625,0.51563 h 10.78125 q 5.39063,0 7.82813,-0.75 2.4375,-0.75 4.6875,-2.95313 2.90625,-2.90625 5.95312,-8.76562 h 1.875 L 889.61719,180 h -48.98438 v -1.73438 h 2.25 q 2.25,0 4.26563,-1.07812 1.5,-0.75 2.01562,-2.25 0.5625,-1.5 0.5625,-6.14063 V 127.5 q 0,-6.04687 -1.21875,-7.45312 -1.6875,-1.875 -5.625,-1.875 h -2.25 v -1.73438 h 48.98438 l 0.70312,13.92187 h -1.82812 q -0.98438,-5.01562 -2.20313,-6.89062 -1.17187,-1.875 -3.51562,-2.85937 -1.875,-0.70313 -6.60938,-0.70313 z"
         id="path3624" />
      <path
         d="m 962.17969,180 h -16.96875 l -21.51563,-29.71875 q -2.39062,0.0937 -3.89062,0.0937 -0.60938,0 -1.3125,0 -0.70313,-0.0469 -1.45313,-0.0937 V 168.75 q 0,6 1.3125,7.45312 1.78125,2.0625 5.34375,2.0625 h 2.48438 V 180 h -27.23438 v -1.73438 h 2.39063 q 4.03125,0 5.76562,-2.625 0.98438,-1.45312 0.98438,-6.89062 v -41.0625 q 0,-6 -1.3125,-7.45312 -1.82813,-2.0625 -5.4375,-2.0625 h -2.39063 v -1.73438 h 23.15625 q 10.125,0 14.90625,1.5 4.82813,1.45313 8.15625,5.4375 3.375,3.9375 3.375,9.42187 0,5.85938 -3.84375,10.17188 -3.79687,4.3125 -11.8125,6.09375 l 13.125,18.23437 q 4.5,6.28125 7.73438,8.34375 3.23437,2.0625 8.4375,2.625 z m -45.14063,-32.67188 q 0.89063,0 1.54688,0.0469 0.65625,0 1.07812,0 9.09375,0 13.6875,-3.9375 4.64063,-3.9375 4.64063,-10.03125 0,-5.95312 -3.75,-9.65625 -3.70313,-3.75 -9.84375,-3.75 -2.71875,0 -7.35938,0.89063 z"
         id="path3626" />
      <path
         d="M 990.96094,178.26562 V 180 h -27.23438 v -1.73438 h 2.25 q 3.9375,0 5.71875,-2.29687 1.125,-1.5 1.125,-7.21875 v -41.0625 q 0,-4.82812 -0.60937,-6.375 -0.46875,-1.17187 -1.92188,-2.01562 -2.0625,-1.125 -4.3125,-1.125 h -2.25 v -1.73438 h 27.23438 v 1.73438 h -2.29688 q -3.89062,0 -5.67187,2.29687 -1.17188,1.5 -1.17188,7.21875 V 168.75 q 0,4.82812 0.60938,6.375 0.46875,1.17187 1.96875,2.01562 2.01562,1.125 4.26562,1.125 z"
         id="path3628" />
      <path
         d="m 1051.1016,114.98438 1.4531,21.60937 h -1.4531 q -2.9063,-9.70312 -8.2969,-13.96875 -5.3906,-4.26562 -12.9375,-4.26562 -6.3281,0 -11.4375,3.23437 -5.1094,3.1875 -8.0625,10.21875 -2.9063,7.03125 -2.9063,17.48437 0,8.625 2.7657,14.95313 2.7656,6.32812 8.2968,9.70312 5.5782,3.375 12.7032,3.375 6.1875,0 10.9218,-2.625 4.7344,-2.67187 10.4063,-10.54687 l 1.4531,0.9375 q -4.7812,8.48437 -11.1562,12.42187 -6.375,3.9375 -15.1407,3.9375 -15.7968,0 -24.4687,-11.71875 -6.46876,-8.71875 -6.46876,-20.53125 0,-9.51562 4.26566,-17.48437 4.2656,-7.96875 11.7187,-12.32812 7.5,-4.40625 16.3594,-4.40625 6.8906,0 13.5937,3.375 1.9688,1.03125 2.8125,1.03125 1.2657,0 2.2032,-0.89063 1.2187,-1.26562 1.7343,-3.51562 z"
         id="path3630" />
      <path
         d="m 1125.6797,147.5625 q 6.6094,1.40625 9.8906,4.5 4.5469,4.3125 4.5469,10.54687 0,4.73438 -3,9.09375 -3,4.3125 -8.25,6.32813 Q 1123.6641,180 1112.9297,180 h -30 v -1.73438 h 2.3906 q 3.9844,0 5.7188,-2.53125 1.0781,-1.64062 1.0781,-6.98437 v -41.0625 q 0,-5.90625 -1.3594,-7.45312 -1.8281,-2.0625 -5.4375,-2.0625 h -2.3906 v -1.73438 h 27.4687 q 7.6875,0 12.3282,1.125 7.0312,1.6875 10.7343,6 3.7032,4.26563 3.7032,9.84375 0,4.78125 -2.9063,8.57812 -2.9062,3.75 -8.5781,5.57813 z m -24.5625,-2.53125 q 1.7344,0.32812 3.9375,0.51562 2.25,0.14063 4.9219,0.14063 6.8437,0 10.2656,-1.45313 3.4687,-1.5 5.2969,-4.54687 1.8281,-3.04688 1.8281,-6.65625 0,-5.57812 -4.5469,-9.51562 -4.5469,-3.9375 -13.2656,-3.9375 -4.6875,0 -8.4375,1.03125 z m 0,30.375 q 5.4375,1.26562 10.7344,1.26562 8.4843,0 12.9375,-3.79687 4.4531,-3.84375 4.4531,-9.46875 0,-3.70313 -2.0156,-7.125 -2.0157,-3.42188 -6.5625,-5.39063 -4.5469,-1.96875 -11.25,-1.96875 -2.9063,0 -4.9688,0.0937 -2.0625,0.0937 -3.3281,0.32813 z"
         id="path3632" />
      <path
         d="m 1165.4297,119.90625 v 25.125 h 13.9687 q 5.4375,0 7.2657,-1.64063 2.4375,-2.15625 2.7187,-7.59375 h 1.7344 v 22.125 h -1.7344 q -0.6562,-4.64062 -1.3125,-5.95312 -0.8437,-1.64063 -2.7656,-2.57813 -1.9219,-0.9375 -5.9063,-0.9375 h -13.9687 v 20.95313 q 0,4.21875 0.375,5.15625 0.375,0.89062 1.3125,1.45312 0.9375,0.51563 3.5625,0.51563 h 10.7812 q 5.3907,0 7.8282,-0.75 2.4375,-0.75 4.6875,-2.95313 2.9062,-2.90625 5.9531,-8.76562 h 1.875 L 1196.3203,180 h -48.9844 v -1.73438 h 2.25 q 2.25,0 4.2657,-1.07812 1.5,-0.75 2.0156,-2.25 0.5625,-1.5 0.5625,-6.14063 V 127.5 q 0,-6.04687 -1.2188,-7.45312 -1.6875,-1.875 -5.625,-1.875 h -2.25 v -1.73438 h 48.9844 l 0.7031,13.92187 h -1.8281 q -0.9844,-5.01562 -2.2031,-6.89062 -1.1719,-1.875 -3.5156,-2.85937 -1.875,-0.70313 -6.6094,-0.70313 z"
         id="path3634" />
      <path
         d="m 1247.9297,158.71875 h -24.6094 l -4.3125,10.03125 q -1.5937,3.70312 -1.5937,5.53125 0,1.45312 1.3593,2.57812 1.4063,1.07813 6,1.40625 V 180 h -20.0156 v -1.73438 q 3.9844,-0.70312 5.1563,-1.82812 2.3906,-2.25 5.2968,-9.14063 l 22.3594,-52.31249 h 1.6406 l 22.125,52.87499 q 2.6719,6.375 4.8282,8.29688 2.2031,1.875 6.0937,2.10937 V 180 h -25.0781 v -1.73438 q 3.7969,-0.1875 5.1094,-1.26562 1.3593,-1.07813 1.3593,-2.625 0,-2.0625 -1.875,-6.51563 z m -1.3125,-3.46875 -10.7813,-25.6875 -11.0625,25.6875 z"
         id="path3636" />
      <path
         d="m 1318.2422,116.4375 0.7031,14.90625 h -1.7812 q -0.5157,-3.9375 -1.4063,-5.625 -1.4531,-2.71875 -3.8906,-3.98437 -2.3906,-1.3125 -6.3281,-1.3125 h -8.9532 v 48.56249 q 0,5.85938 1.2657,7.3125 1.7812,1.96875 5.4843,1.96875 h 2.2032 V 180 h -26.9532 v -1.73438 h 2.25 q 4.0313,0 5.7188,-2.4375 1.0312,-1.5 1.0312,-6.84375 v -48.56249 h -7.6406 q -4.4531,0 -6.3281,0.65625 -2.4375,0.89062 -4.1719,3.42187 -1.7344,2.53125 -2.0625,6.84375 h -1.7812 l 0.75,-14.90625 z"
         id="path3638" />
    </g>
    <g
       aria-label="SAAA"
       id="text17824"
       style="font-size:96px;line-height:1.25;font-family:'Latin Modern Math';-inkscape-font-specification:'Latin Modern Math';text-align:center;text-anchor:middle;fill:#ffffff;stroke-width:0.264583">
      <path
         d="m 873.21629,942.144 c 0,-9.6 -6.336,-17.472 -14.4,-19.392 l -12.288,-2.976 c -5.952,-1.44 -9.696,-6.624 -9.696,-12.192 0,-6.72 5.184,-12.576 12.672,-12.576 16.032,0 18.144,15.744 18.72,20.064 0.096,0.576 0.096,1.152 1.152,1.152 1.248,0 1.248,-0.48 1.248,-2.304 v -19.296 c 0,-1.632 0,-2.304 -1.056,-2.304 -0.672,0 -0.768,0.096 -1.44,1.248 l -3.36,5.472 c -2.88,-2.784 -6.816,-6.72 -15.36,-6.72 -10.656,0 -18.72,8.448 -18.72,18.624 0,7.968 5.088,14.976 12.576,17.568 1.056,0.384 5.952,1.536 12.672,3.168 2.592,0.672 5.472,1.344 8.16,4.896 2.016,2.496 2.976,5.664 2.976,8.832 0,6.816 -4.8,13.728 -12.864,13.728 -2.784,0 -10.08,-0.48 -15.168,-5.184 -5.568,-5.184 -5.856,-11.328 -5.952,-14.784 -0.096,-0.96 -0.864,-0.96 -1.152,-0.96 -1.248,0 -1.248,0.672 -1.248,2.4 v 19.2 c 0,1.632 0,2.304 1.056,2.304 0.672,0 0.768,-0.192 1.44,-1.248 0,0 0.288,-0.384 3.456,-5.472 2.976,3.264 9.12,6.72 17.664,6.72 11.232,0 18.912,-9.408 18.912,-19.968 z"
         id="path3686" />
      <path
         d="m 947.52026,960 v -2.976 h -1.728 c -5.76,0 -7.104,-0.672 -8.16,-3.84 l -20.736,-60 c -0.48,-1.248 -0.672,-1.92 -2.208,-1.92 -1.536,0 -1.824,0.576 -2.304,1.92 l -19.872,57.408 c -1.728,4.896 -5.568,6.336 -10.752,6.432 V 960 l 9.792,-0.288 11.04,0.288 v -2.976 c -4.8,0 -7.2,-2.4 -7.2,-4.896 0,-0.288 0.096,-1.248 0.192,-1.44 l 4.416,-12.576 h 23.712 l 5.088,14.688 c 0.096,0.384 0.288,0.96 0.288,1.344 0,2.88 -5.376,2.88 -7.968,2.88 V 960 c 3.456,-0.288 10.176,-0.288 13.824,-0.288 z m -24.864,-24.864 h -21.6 l 10.752,-31.2 z"
         id="path3688" />
      <path
         d="m 1019.5201,960 v -2.976 h -1.728 c -5.76,0 -7.104,-0.672 -8.16,-3.84 l -20.73602,-60 c -0.48,-1.248 -0.672,-1.92 -2.208,-1.92 -1.536,0 -1.824,0.576 -2.304,1.92 l -19.872,57.408 c -1.728,4.896 -5.568,6.336 -10.752,6.432 V 960 l 9.792,-0.288 11.04,0.288 v -2.976 c -4.8,0 -7.2,-2.4 -7.2,-4.896 0,-0.288 0.096,-1.248 0.192,-1.44 l 4.416,-12.576 h 23.712 l 5.08802,14.688 c 0.096,0.384 0.288,0.96 0.288,1.344 0,2.88 -5.37602,2.88 -7.96802,2.88 V 960 c 3.456,-0.288 10.17602,-0.288 13.82402,-0.288 z m -24.86402,-24.864 h -21.6 l 10.752,-31.2 z"
         id="path3690" />
      <path
         d="m 1091.5199,960 v -2.976 h -1.728 c -5.76,0 -7.104,-0.672 -8.16,-3.84 l -20.736,-60 c -0.48,-1.248 -0.672,-1.92 -2.208,-1.92 -1.536,0 -1.824,0.576 -2.304,1.92 l -19.872,57.408 c -1.728,4.896 -5.568,6.336 -10.752,6.432 V 960 l 9.792,-0.288 11.04,0.288 v -2.976 c -4.8,0 -7.2,-2.4 -7.2,-4.896 0,-0.288 0.096,-1.248 0.192,-1.44 l 4.416,-12.576 h 23.712 l 5.088,14.688 c 0.096,0.384 0.288,0.96 0.288,1.344 0,2.88 -5.376,2.88 -7.968,2.88 V 960 c 3.456,-0.288 10.176,-0.288 13.824,-0.288 z m -24.864,-24.864 h -21.6 l 10.752,-31.2 z"
         id="path3692" />
    </g>
    <path
       style="fill:#404040;fill-opacity:1;stroke:none;stroke-width:1px;stroke-linecap:butt;stroke-linejoin:miter;stroke-opacity:1"
       d="m 720,300 v 480 h 360 V 660 h 120 V 300 Z"
       id="path27827"
       sodipodi:nodetypes="ccccccc" />
    <g
       aria-label="1516"
       id="text30890"
       style="font-size:320px;line-height:1.25;font-family:'Cascadia Code';-inkscape-font-specification:'Cascadia Code';text-align:center;text-anchor:middle;fill:#ffffff">
      <path
         d="M 611.5625,600 H 749.375 V 570.3125 H 699.6875 V 378.125 h -32.5 l -52.5,18.75 v 31.5625 l 52.5,-18.125 v 160 h -55.625 z"
         id="path3659" />
      <path
         d="m 868.4375,603.125 c 47.65625,0 75,-27.1875 75,-74.6875 0,-46.5625 -24.53125,-73.125 -67.5,-73.125 -11.875,0 -23.59375,1.25 -35.46875,5.625 l 1.71875,-53.75 H 929.375 V 378.125 H 809.6875 l -3.125,115.625 h 17.5 c 12.65625,-6.875 26.25,-10.3125 40.9375,-10.3125 29.0625,0 45.625,16.40625 45.625,45 0,29.21875 -15.15625,45.9375 -41.875,45.9375 -27.03125,0 -42.1875,-13.4375 -42.1875,-36.5625 H 793.125 c 0,41.5625 27.34375,65.3125 75.3125,65.3125 z"
         id="path3661" />
      <path
         d="m 986.5625,600 h 137.8125 v -29.6875 h -49.6875 V 378.125 h -32.5 l -52.5,18.75 v 31.5625 l 52.5,-18.125 v 160 h -55.625 z"
         id="path3663" />
      <path
         d="m 1242.5,603.125 c 47.6563,0 75.9375,-27.8125 75.9375,-75 0,-43.75 -21.875,-68.75 -60.625,-68.75 -26.875,0 -46.5625,13.125 -52.8125,36.25 h -2.8125 c 0.1563,-56.71875 32.6563,-85.9375 99.0625,-88.75 l -3.125,-29.6875 C 1210,381.5625 1167.5,425.625 1167.5,510.3125 v 13.75 c 0,54.21875 23.5938,79.0625 75,79.0625 z m 1.0938,-28.75 c -26.875,0 -42.6563,-16.09375 -42.6563,-43.125 0,-27.5 16.25,-43.125 45.1563,-43.125 25.4687,0 39.5312,14.375 39.5312,40 0,29.0625 -15.625,46.25 -42.0312,46.25 z"
         id="path3665" />
    </g>
  </g>
</svg>
